<?xml version="1.0" standalone="no"?>
<!DOCTYPE svg PUBLIC "-//W3C//DTD SVG 20010904//EN"
 "http://www.w3.org/TR/2001/REC-SVG-20010904/DTD/svg10.dtd">
<svg version="1.0" xmlns="http://www.w3.org/2000/svg"
 width="512.000000pt" height="512.000000pt" viewBox="0 0 512.000000 512.000000"
 preserveAspectRatio="xMidYMid meet">
<metadata>
Created by potrace 1.14, written by Peter Selinger 2001-2017
</metadata>
<g transform="translate(0.000000,512.000000) scale(0.100000,-0.100000)"
fill="#000000" stroke="none">
<path d="M1433 5100 c-298 -78 -499 -333 -489 -621 8 -231 143 -432 358 -537
55 -26 76 -41 73 -52 -31 -107 -24 -316 19 -500 11 -51 75 -200 105 -251 18
-28 31 -52 29 -54 -2 -1 -81 -41 -176 -89 -192 -96 -271 -142 -383 -222 -491
-354 -658 -999 -305 -1182 44 -22 63 -26 141 -26 79 0 98 4 157 31 37 17 84
44 105 59 63 46 153 144 179 196 22 44 40 66 28 34 -3 -7 -6 -64 -7 -126 l-2
-112 -65 -23 c-177 -60 -309 -174 -395 -344 -24 -48 -59 -150 -71 -206 -13
-66 -12 -252 2 -329 69 -362 336 -655 667 -729 93 -21 251 -15 341 12 195 59
368 230 442 438 13 37 24 75 24 84 0 14 7 15 68 3 170 -33 399 -36 532 -6 67
15 83 10 92 -28 9 -36 11 -40 48 -125 21 -47 80 -137 117 -180 35 -41 135
-116 191 -144 87 -43 168 -63 272 -67 211 -8 410 75 570 236 82 82 94 97 152
195 120 200 161 442 113 663 -23 108 -101 262 -170 339 -70 78 -184 154 -273
182 l-68 22 -1 115 c-1 68 2 112 8 109 5 -4 9 -13 9 -21 0 -26 171 -187 236
-221 69 -37 165 -64 215 -62 296 13 409 333 248 701 -109 251 -287 442 -567
611 -93 56 -372 197 -389 197 -5 0 -14 5 -20 11 -8 8 2 37 38 108 49 97 92
226 108 330 10 59 7 291 -4 352 l-6 35 86 43 c272 135 411 453 319 731 -55
164 -179 302 -339 375 -95 44 -153 57 -265 61 -255 9 -461 -107 -605 -340 -9
-14 -15 -15 -56 -2 -78 24 -199 39 -314 38 -142 0 -198 -7 -313 -37 l-53 -13
-34 54 c-94 147 -233 242 -425 291 -8 2 -62 6 -120 8 -80 3 -122 -1 -177 -15z"/>
</g>
</svg>
